<svg xmlns="http://www.w3.org/2000/svg" width="80" height="80" fill="none" viewBox="0 0 96 96" id="sound-waves">
  <path fill="url(#paint0_linear_707_3785)" fill-rule="evenodd" d="M62.5 15C62.5 13.6193 61.3807 12.5 60 12.5C58.6193 12.5 57.5 13.6193 57.5 15L57.5 81C57.5 82.3807 58.6193 83.5 60 83.5C61.3807 83.5 62.5 82.3807 62.5 81L62.5 15ZM20 17.5C21.3807 17.5 22.5 18.6193 22.5 20L22.5 76C22.5 77.3807 21.3807 78.5 20 78.5C18.6193 78.5 17.5 77.3807 17.5 76L17.5 20C17.5 18.6193 18.6193 17.5 20 17.5ZM14.5 30C14.5 28.6193 13.3807 27.5 12 27.5C10.6193 27.5 9.5 28.6193 9.5 30L9.5 66C9.5 67.3807 10.6193 68.5 12 68.5C13.3807 68.5 14.5 67.3807 14.5 66L14.5 30ZM6.5 43C6.5 41.6193 5.38071 40.5 4 40.5C2.61929 40.5 1.5 41.6193 1.5 43V53C1.5 54.3807 2.61929 55.5 4 55.5C5.38071 55.5 6.5 54.3807 6.5 53L6.5 43ZM30.5 33C30.5 31.6193 29.3807 30.5 28 30.5C26.6193 30.5 25.5 31.6193 25.5 33L25.5 63C25.5 64.3807 26.6193 65.5 28 65.5C29.3807 65.5 30.5 64.3807 30.5 63L30.5 33ZM36 35.5C37.3807 35.5 38.5 36.6193 38.5 38V58C38.5 59.3807 37.3807 60.5 36 60.5C34.6193 60.5 33.5 59.3807 33.5 58V38C33.5 36.6193 34.6193 35.5 36 35.5ZM46.5 32C46.5 30.6193 45.3807 29.5 44 29.5C42.6193 29.5 41.5 30.6193 41.5 32V64C41.5 65.3807 42.6193 66.5 44 66.5C45.3807 66.5 46.5 65.3807 46.5 64V32ZM52 17.5C53.3807 17.5 54.5 18.6193 54.5 20V76C54.5 77.3807 53.3807 78.5 52 78.5C50.6193 78.5 49.5 77.3807 49.5 76V20C49.5 18.6193 50.6193 17.5 52 17.5ZM68 21.5C69.3807 21.5 70.5 22.6193 70.5 24V72C70.5 73.3807 69.3807 74.5 68 74.5C66.6193 74.5 65.5 73.3807 65.5 72V24C65.5 22.6193 66.6193 21.5 68 21.5ZM78.5 32C78.5 30.6193 77.3807 29.5 76 29.5C74.6193 29.5 73.5 30.6193 73.5 32V64C73.5 65.3807 74.6193 66.5 76 66.5C77.3807 66.5 78.5 65.3807 78.5 64V32ZM84 35.5C85.3807 35.5 86.5 36.6193 86.5 38V58C86.5 59.3807 85.3807 60.5 84 60.5C82.6193 60.5 81.5 59.3807 81.5 58V38C81.5 36.6193 82.6193 35.5 84 35.5ZM94.5 43C94.5 41.6193 93.3807 40.5 92 40.5C90.6193 40.5 89.5 41.6193 89.5 43V53C89.5 54.3807 90.6193 55.5 92 55.5C93.3807 55.5 94.5 54.3807 94.5 53V43Z" clip-rule="evenodd"></path>
  <defs>
    <linearGradient id="paint0_linear_707_3785" x1="48" x2="48" y1="12.5" y2="83.5" gradientUnits="userSpaceOnUse">
      <stop stop-color="#D9008F"></stop>
      <stop offset="1" stop-color="#FA6900"></stop>
    </linearGradient>
  </defs>
</svg>