<svg xmlns="http://www.w3.org/2000/svg" version="1.1" xmlns:xlink="http://www.w3.org/1999/xlink" xmlns:svgjs="http://svgjs.dev/svgjs" width="1440" height="560" preserveAspectRatio="none" viewBox="0 0 1440 560">
    <g mask="url(&quot;#SvgjsMask1052&quot;)" fill="none">
        <rect width="1440" height="560" x="0" y="0" fill="url(&quot;#SvgjsLinearGradient1053&quot;)"></rect>
        <g transform="translate(0, 0)" stroke-linecap="round">
            <path d="M190 98.04 L190 461.96" stroke-width="15" stroke="rgba(255, 255, 255, 1)"></path>
            <path d="M210 174.66 L210 385.34" stroke-width="15" stroke="rgba(255, 255, 255, 1)"></path>
            <path d="M230 111.88 L230 448.13" stroke-width="15" stroke="rgba(255, 255, 255, 1)"></path>
            <path d="M250 96.19 L250 463.81" stroke-width="15" stroke="rgba(255, 255, 255, 1)"></path>
            <path d="M270 210.78 L270 349.23" stroke-width="15" stroke="rgba(255, 255, 255, 1)"></path>
            <path d="M290 217.2 L290 342.8" stroke-width="15" stroke="rgba(255, 255, 255, 1)"></path>
            <path d="M310 134.77 L310 425.23" stroke-width="15" stroke="rgba(255, 255, 255, 1)"></path>
            <path d="M330 182.03 L330 377.97" stroke-width="15" stroke="rgba(255, 255, 255, 1)"></path>
            <path d="M350 256.24 L350 303.76" stroke-width="15" stroke="rgba(255, 255, 255, 1)"></path>
            <path d="M370 137.34 L370 422.65" stroke-width="15" stroke="rgba(255, 255, 255, 1)"></path>
            <path d="M390 166.46 L390 393.54" stroke-width="15" stroke="rgba(255, 255, 255, 1)"></path>
            <path d="M410 188.64 L410 371.36" stroke-width="15" stroke="rgba(255, 255, 255, 1)"></path>
            <path d="M430 163.92 L430 396.08" stroke-width="15" stroke="rgba(255, 255, 255, 1)"></path>
            <path d="M450 211.95 L450 348.05" stroke-width="15" stroke="rgba(255, 255, 255, 1)"></path>
            <path d="M470 233.5 L470 326.5" stroke-width="15" stroke="rgba(255, 255, 255, 1)"></path>
            <path d="M490 222.16 L490 337.84" stroke-width="15" stroke="rgba(255, 255, 255, 1)"></path>
            <path d="M510 168.43 L510 391.57" stroke-width="15" stroke="rgba(255, 255, 255, 1)"></path>
            <path d="M530 81.76 L530 478.24" stroke-width="15" stroke="rgba(255, 255, 255, 1)"></path>
            <path d="M550 167.97 L550 392.03" stroke-width="15" stroke="rgba(255, 255, 255, 1)"></path>
            <path d="M570 98.49 L570 461.51" stroke-width="15" stroke="rgba(255, 255, 255, 1)"></path>
            <path d="M590 206.68 L590 353.32" stroke-width="15" stroke="rgba(255, 255, 255, 1)"></path>
            <path d="M610 220.19 L610 339.81" stroke-width="15" stroke="rgba(255, 255, 255, 1)"></path>
            <path d="M630 150.94 L630 409.06" stroke-width="15" stroke="rgba(255, 255, 255, 1)"></path>
            <path d="M650 230.94 L650 329.06" stroke-width="15" stroke="rgba(255, 255, 255, 1)"></path>
            <path d="M670 208.96 L670 351.04" stroke-width="15" stroke="rgba(255, 255, 255, 1)"></path>
            <path d="M690 82.99 L690 477.01" stroke-width="15" stroke="rgba(255, 255, 255, 1)"></path>
            <path d="M710 148.57 L710 411.43" stroke-width="15" stroke="rgba(255, 255, 255, 1)"></path>
            <path d="M730 188.36 L730 371.64" stroke-width="15" stroke="rgba(255, 255, 255, 1)"></path>
            <path d="M750 129.81 L750 430.19" stroke-width="15" stroke="rgba(255, 255, 255, 1)"></path>
            <path d="M770 85.34 L770 474.65" stroke-width="15" stroke="rgba(255, 255, 255, 1)"></path>
            <path d="M790 106.71 L790 453.29" stroke-width="15" stroke="rgba(255, 255, 255, 1)"></path>
            <path d="M810 238.61 L810 321.39" stroke-width="15" stroke="rgba(255, 255, 255, 1)"></path>
            <path d="M830 135.01 L830 424.99" stroke-width="15" stroke="rgba(255, 255, 255, 1)"></path>
            <path d="M850 91.28 L850 468.72" stroke-width="15" stroke="rgba(255, 255, 255, 1)"></path>
            <path d="M870 145.32 L870 414.68" stroke-width="15" stroke="rgba(255, 255, 255, 1)"></path>
            <path d="M890 177.33 L890 382.67" stroke-width="15" stroke="rgba(255, 255, 255, 1)"></path>
            <path d="M910 224.28 L910 335.72" stroke-width="15" stroke="rgba(255, 255, 255, 1)"></path>
            <path d="M930 206.82 L930 353.18" stroke-width="15" stroke="rgba(255, 255, 255, 1)"></path>
            <path d="M950 129.93 L950 430.07" stroke-width="15" stroke="rgba(255, 255, 255, 1)"></path>
            <path d="M970 214.77 L970 345.23" stroke-width="15" stroke="rgba(255, 255, 255, 1)"></path>
            <path d="M990 101.26 L990 458.74" stroke-width="15" stroke="rgba(255, 255, 255, 1)"></path>
            <path d="M1010 248.1 L1010 311.9" stroke-width="15" stroke="rgba(255, 255, 255, 1)"></path>
            <path d="M1030 110.82 L1030 449.18" stroke-width="15" stroke="rgba(255, 255, 255, 1)"></path>
            <path d="M1050 249.3 L1050 310.7" stroke-width="15" stroke="rgba(255, 255, 255, 1)"></path>
            <path d="M1070 241.04 L1070 318.96" stroke-width="15" stroke="rgba(255, 255, 255, 1)"></path>
            <path d="M1090 87.82 L1090 472.18" stroke-width="15" stroke="rgba(255, 255, 255, 1)"></path>
            <path d="M1110 104.94 L1110 455.06" stroke-width="15" stroke="rgba(255, 255, 255, 1)"></path>
            <path d="M1130 255.74 L1130 304.26" stroke-width="15" stroke="rgba(255, 255, 255, 1)"></path>
            <path d="M1150 97.09 L1150 462.91" stroke-width="15" stroke="rgba(255, 255, 255, 1)"></path>
            <path d="M1170 195.53 L1170 364.48" stroke-width="15" stroke="rgba(255, 255, 255, 1)"></path>
            <path d="M1190 204.2 L1190 355.8" stroke-width="15" stroke="rgba(255, 255, 255, 1)"></path>
            <path d="M1210 206.36 L1210 353.64" stroke-width="15" stroke="rgba(255, 255, 255, 1)"></path>
            <path d="M1230 251.06 L1230 308.94" stroke-width="15" stroke="rgba(255, 255, 255, 1)"></path>
            <path d="M1250 109.68 L1250 450.32" stroke-width="15" stroke="rgba(255, 255, 255, 1)"></path>
        </g>
    </g>
    <defs>
        <mask id="SvgjsMask1052">
            <rect width="1440" height="560" fill="#ffffff"></rect>
        </mask>
        <linearGradient x1="50%" y1="0%" x2="50%" y2="100%" gradientUnits="userSpaceOnUse" id="SvgjsLinearGradient1053">
            <stop stop-color="#0e2a47" offset="0"></stop>
            <stop stop-color="#00459e" offset="1"></stop>
        </linearGradient>
    </defs>
</svg>